# This file uses centimeters as units for non-parametric coordinates.

mtllib svastika.mtl
g default
v 337.477417 -12.674022 69.957558
v 321.503967 -12.674022 42.774197
v 298.284332 -12.674022 18.216621
v 269.277405 -12.674022 -2.172101
v 236.305969 -12.674022 -17.110929
v 201.441589 -12.674022 -25.661165
v 166.875015 -12.674022 -27.285507
v 134.778168 -12.674022 -21.882027
v 107.167816 -12.674022 -9.790130
v 85.778778 -12.674022 8.230368
v 71.955040 -12.674022 31.047165
v 66.565216 -12.674022 57.226608
v 69.947914 -12.674022 85.123741
v 81.890656 -12.674022 112.985680
v 101.642982 -12.674022 139.061783
v 127.963806 -12.674022 161.713547
v 159.199280 -12.674022 179.517715
v 193.386765 -12.674022 191.355560
v 228.378128 -12.674022 196.483292
v 261.974792 -12.674022 194.578690
v 292.065643 -12.674022 185.761459
v 316.760071 -12.674022 170.585602
v 334.506378 -12.674022 150.004654
v 344.189484 -12.674022 125.311836
v 345.201019 -12.674022 98.058640
v 436.608154 -12.674021 58.968624
v 408.597168 -12.674021 11.300061
v 367.879303 -12.674021 -31.763918
v 317.013092 -12.674021 -67.517471
v 259.194580 -12.674021 -93.714058
v 198.056747 -12.674021 -108.707649
v 137.441040 -12.674021 -111.556137
v 81.156326 -12.674021 -102.080612
v 32.739014 -12.674021 -80.876312
v -4.768676 -12.674021 -49.275757
v -29.009935 -12.674021 -9.264392
v -38.461449 -12.674021 36.643692
v -32.529522 -12.674021 85.563843
v -11.586874 -12.674021 134.422333
v 23.050629 -12.674021 180.149124
v 69.206596 -12.674021 219.871109
v 123.980927 -12.674021 251.092346
v 183.931870 -12.674021 271.851105
v 245.292450 -12.674021 280.843109
v 304.207245 -12.674021 277.503204
v 356.974365 -12.674021 262.041382
v 400.278351 -12.674021 235.429108
v 431.398071 -12.674021 199.338531
v 448.378357 -12.674021 156.037384
v 450.152161 -12.674021 108.246414
v 436.608124 -18.574106 58.968609
v 408.597137 -18.574106 11.300074
v 367.879303 -18.574106 -31.763906
v 317.013062 -18.574106 -67.517456
v 259.194580 -18.574106 -93.714027
v 198.056747 -18.574106 -108.707619
v 137.441040 -18.574106 -111.556107
v 81.156326 -18.574106 -102.080612
v 32.739017 -18.574106 -80.876312
v -4.768676 -18.574106 -49.275757
v -29.009886 -18.574106 -9.264386
v -38.461426 -18.574106 36.643696
v -32.529522 -18.574106 85.563843
v -11.586873 -18.574106 134.422318
v 23.050655 -18.574106 180.149109
v 69.206619 -18.574106 219.871063
v 123.980934 -18.574106 251.092316
v 183.931839 -18.574106 271.851105
v 245.292435 -18.574106 280.843079
v 304.207245 -18.574106 277.503204
v 356.974335 -18.574106 262.041351
v 400.278320 -18.574106 235.429092
v 431.398041 -18.574106 199.338516
v 448.378357 -18.574106 156.037369
v 450.152130 -18.574106 108.246407
v 337.477417 -18.574100 69.957565
v 321.503967 -18.574100 42.774204
v 298.284332 -18.574100 18.216635
v 269.277405 -18.574100 -2.172088
v 236.305969 -18.574100 -17.110916
v 201.441605 -18.574100 -25.661165
v 166.875015 -18.574100 -27.285507
v 134.778168 -18.574100 -21.882013
v 107.167831 -18.574100 -9.790124
v 85.778801 -18.574100 8.230375
v 71.955063 -18.574100 31.047165
v 66.565231 -18.574100 57.226608
v 69.947929 -18.574100 85.123734
v 81.890671 -18.574100 112.985680
v 101.642990 -18.574100 139.061783
v 127.963821 -18.574100 161.713547
v 159.199280 -18.574100 179.517700
v 193.386765 -18.574100 191.355545
v 228.378128 -18.574100 196.483292
v 261.974792 -18.574100 194.578690
v 292.065613 -18.574100 185.761429
v 316.760040 -18.574100 170.585587
v 334.506348 -18.574100 150.004639
v 344.189453 -18.574100 125.311829
v 345.201019 -18.574100 98.058640
vt 0.000000 1.000000
vt 0.040000 1.000000
vt 0.080000 1.000000
vt 0.120000 1.000000
vt 0.160000 1.000000
vt 0.200000 1.000000
vt 0.240000 1.000000
vt 0.280000 1.000000
vt 0.320000 1.000000
vt 0.360000 1.000000
vt 0.400000 1.000000
vt 0.440000 1.000000
vt 0.480000 1.000000
vt 0.520000 1.000000
vt 0.560000 1.000000
vt 0.600000 1.000000
vt 0.640000 1.000000
vt 0.680000 1.000000
vt 0.720000 1.000000
vt 0.760000 1.000000
vt 0.800000 1.000000
vt 0.840000 1.000000
vt 0.880000 1.000000
vt 0.920000 1.000000
vt 0.960000 1.000000
vt 1.000000 1.000000
vt 0.000000 0.750000
vt 0.040000 0.750000
vt 0.080000 0.750000
vt 0.120000 0.750000
vt 0.160000 0.750000
vt 0.200000 0.750000
vt 0.240000 0.750000
vt 0.280000 0.750000
vt 0.320000 0.750000
vt 0.360000 0.750000
vt 0.400000 0.750000
vt 0.440000 0.750000
vt 0.480000 0.750000
vt 0.520000 0.750000
vt 0.560000 0.750000
vt 0.600000 0.750000
vt 0.640000 0.750000
vt 0.680000 0.750000
vt 0.720000 0.750000
vt 0.760000 0.750000
vt 0.800000 0.750000
vt 0.840000 0.750000
vt 0.880000 0.750000
vt 0.920000 0.750000
vt 0.960000 0.750000
vt 1.000000 0.750000
vt 0.000000 0.500000
vt 0.040000 0.500000
vt 0.080000 0.500000
vt 0.120000 0.500000
vt 0.160000 0.500000
vt 0.200000 0.500000
vt 0.240000 0.500000
vt 0.280000 0.500000
vt 0.320000 0.500000
vt 0.360000 0.500000
vt 0.400000 0.500000
vt 0.440000 0.500000
vt 0.480000 0.500000
vt 0.520000 0.500000
vt 0.560000 0.500000
vt 0.600000 0.500000
vt 0.640000 0.500000
vt 0.680000 0.500000
vt 0.720000 0.500000
vt 0.760000 0.500000
vt 0.800000 0.500000
vt 0.840000 0.500000
vt 0.880000 0.500000
vt 0.920000 0.500000
vt 0.960000 0.500000
vt 1.000000 0.500000
vt 0.000000 0.250000
vt 0.040000 0.250000
vt 0.080000 0.250000
vt 0.120000 0.250000
vt 0.160000 0.250000
vt 0.200000 0.250000
vt 0.240000 0.250000
vt 0.280000 0.250000
vt 0.320000 0.250000
vt 0.360000 0.250000
vt 0.400000 0.250000
vt 0.440000 0.250000
vt 0.480000 0.250000
vt 0.520000 0.250000
vt 0.560000 0.250000
vt 0.600000 0.250000
vt 0.640000 0.250000
vt 0.680000 0.250000
vt 0.720000 0.250000
vt 0.760000 0.250000
vt 0.800000 0.250000
vt 0.840000 0.250000
vt 0.880000 0.250000
vt 0.920000 0.250000
vt 0.960000 0.250000
vt 1.000000 0.250000
vt 0.000000 0.000000
vt 0.040000 0.000000
vt 0.080000 0.000000
vt 0.120000 0.000000
vt 0.160000 0.000000
vt 0.200000 0.000000
vt 0.240000 0.000000
vt 0.280000 0.000000
vt 0.320000 0.000000
vt 0.360000 0.000000
vt 0.400000 0.000000
vt 0.440000 0.000000
vt 0.480000 0.000000
vt 0.520000 0.000000
vt 0.560000 0.000000
vt 0.600000 0.000000
vt 0.640000 0.000000
vt 0.680000 0.000000
vt 0.720000 0.000000
vt 0.760000 0.000000
vt 0.800000 0.000000
vt 0.840000 0.000000
vt 0.880000 0.000000
vt 0.920000 0.000000
vt 0.960000 0.000000
vt 1.000000 0.000000
vn -0.000000 1.000000 0.000000
vn -0.000000 1.000000 0.000000
vn -0.000000 1.000000 0.000000
vn -0.000000 1.000000 0.000000
vn -0.000000 1.000000 -0.000000
vn -0.000000 1.000000 -0.000000
vn -0.000000 1.000000 -0.000000
vn -0.000000 1.000000 -0.000000
vn -0.000000 1.000000 0.000000
vn -0.000000 1.000000 0.000000
vn -0.000000 1.000000 0.000000
vn -0.000000 1.000000 0.000000
vn 0.000000 1.000000 0.000000
vn 0.000000 1.000000 0.000000
vn 0.000000 1.000000 0.000000
vn 0.000000 1.000000 0.000000
vn 0.000000 1.000000 0.000000
vn 0.000000 1.000000 0.000000
vn 0.000000 1.000000 0.000000
vn 0.000000 1.000000 0.000000
vn 0.000000 1.000000 0.000000
vn 0.000000 1.000000 0.000000
vn 0.000000 1.000000 0.000000
vn 0.000000 1.000000 0.000000
vn 0.000000 1.000000 0.000000
vn 0.000000 1.000000 0.000000
vn 0.000000 1.000000 0.000000
vn 0.000000 1.000000 0.000000
vn 0.000000 1.000000 -0.000000
vn 0.000000 1.000000 -0.000000
vn 0.000000 1.000000 -0.000000
vn 0.000000 1.000000 -0.000000
vn 0.000000 1.000000 -0.000000
vn 0.000000 1.000000 -0.000000
vn 0.000000 1.000000 -0.000000
vn 0.000000 1.000000 -0.000000
vn 0.000000 1.000000 -0.000000
vn 0.000000 1.000000 -0.000000
vn -0.000000 1.000000 -0.000000
vn -0.000000 1.000000 0.000000
vn -0.000000 1.000000 0.000000
vn -0.000000 1.000000 0.000000
vn -0.000000 1.000000 0.000000
vn -0.000000 1.000000 0.000000
vn -0.000000 1.000000 0.000000
vn -0.000000 1.000000 0.000000
vn -0.000000 1.000000 0.000000
vn -0.000000 1.000000 0.000000
vn -0.000000 1.000000 0.000000
vn -0.000000 1.000000 0.000000
vn 0.797126 -0.000007 -0.603813
vn 0.919123 -0.000006 -0.393972
vn 0.919122 -0.000006 -0.393972
vn 0.797126 -0.000007 -0.603814
vn 0.652302 -0.000006 -0.757959
vn 0.652302 -0.000006 -0.757959
vn 0.495202 -0.000006 -0.868778
vn 0.495202 -0.000006 -0.868778
vn 0.327203 -0.000004 -0.944954
vn 0.327203 -0.000004 -0.944954
vn 0.144994 -0.000005 -0.989433
vn 0.144994 -0.000005 -0.989433
vn -0.056599 -0.000004 -0.998397
vn -0.056599 -0.000004 -0.998397
vn -0.281197 -0.000001 -0.959650
vn -0.281197 -0.000001 -0.959650
vn -0.523579 -0.000000 -0.851977
vn -0.523579 -0.000000 -0.851977
vn -0.757334 -0.000002 -0.653028
vn -0.757334 -0.000002 -0.653028
vn -0.930977 -0.000005 -0.365077
vn -0.930977 -0.000005 -0.365077
vn -0.999312 -0.000004 -0.037090
vn -0.999312 -0.000004 -0.037090
vn -0.964242 -0.000001 0.265023
vn -0.964242 -0.000001 0.265023
vn -0.862166 -0.000002 0.506626
vn -0.862166 -0.000002 0.506626
vn -0.726623 -0.000005 0.687036
vn -0.726623 -0.000005 0.687036
vn -0.575050 -0.000007 0.818118
vn -0.575050 -0.000007 0.818118
vn -0.412698 -0.000005 0.910868
vn -0.412698 -0.000005 0.910868
vn -0.238184 -0.000002 0.971220
vn -0.238185 -0.000002 0.971220
vn -0.046941 -0.000002 0.998898
vn -0.046941 -0.000002 0.998898
vn 0.166014 -0.000003 0.986123
vn 0.166014 -0.000003 0.986123
vn 0.401163 -0.000004 0.916007
vn 0.401163 -0.000004 0.916007
vn 0.644318 -0.000003 0.764758
vn 0.644318 -0.000003 0.764758
vn 0.855275 -0.000003 0.518174
vn 0.855275 -0.000003 0.518174
vn 0.979457 -0.000001 0.201651
vn 0.979457 -0.000001 0.201651
vn 0.992729 -0.000001 -0.120375
vn 0.992729 -0.000001 -0.120375
vn -0.000000 -1.000000 0.000000
vn -0.000000 -1.000000 -0.000000
vn -0.000000 -1.000000 0.000000
vn -0.000000 -1.000000 0.000000
vn -0.000000 -1.000000 0.000000
vn -0.000000 -1.000000 0.000000
vn -0.000000 -1.000000 0.000000
vn -0.000000 -1.000000 0.000000
vn -0.000000 -1.000000 0.000000
vn -0.000000 -1.000000 0.000000
vn -0.000000 -1.000000 0.000000
vn -0.000000 -1.000000 0.000000
vn 0.000000 -1.000000 0.000000
vn 0.000000 -1.000000 0.000000
vn 0.000000 -1.000000 0.000000
vn 0.000000 -1.000000 0.000000
vn 0.000000 -1.000000 0.000000
vn 0.000000 -1.000000 0.000000
vn 0.000000 -1.000000 0.000000
vn 0.000000 -1.000000 0.000000
vn 0.000000 -1.000000 0.000000
vn 0.000000 -1.000000 0.000000
vn 0.000000 -1.000000 0.000000
vn 0.000000 -1.000000 0.000000
vn 0.000000 -1.000000 -0.000000
vn 0.000000 -1.000000 -0.000000
vn 0.000000 -1.000000 -0.000000
vn 0.000000 -1.000000 -0.000000
vn 0.000000 -1.000000 -0.000000
vn 0.000000 -1.000000 -0.000000
vn 0.000000 -1.000000 -0.000000
vn 0.000000 -1.000000 -0.000000
vn 0.000000 -1.000000 -0.000000
vn 0.000000 -1.000000 -0.000000
vn 0.000000 -1.000000 -0.000000
vn 0.000000 -1.000000 -0.000000
vn 0.000000 -1.000000 -0.000000
vn 0.000000 -1.000000 -0.000000
vn -0.000000 -1.000000 -0.000000
vn -0.000000 -1.000000 -0.000000
vn -0.000000 -1.000000 -0.000000
vn -0.000000 -1.000000 -0.000000
vn -0.000000 -1.000000 -0.000000
vn -0.000000 -1.000000 -0.000000
vn -0.000000 -1.000000 -0.000000
vn -0.000000 -1.000000 -0.000000
vn -0.000000 -1.000000 0.000000
vn -0.000000 -1.000000 0.000000
vn -0.000000 -1.000000 -0.000000
vn -0.000000 -1.000000 -0.000000
vn -0.797126 0.000002 0.603813
vn -0.919123 0.000002 0.393972
vn -0.919123 0.000002 0.393972
vn -0.797126 0.000002 0.603813
vn -0.652302 -0.000000 0.757959
vn -0.652301 -0.000000 0.757960
vn -0.495202 0.000000 0.868778
vn -0.495202 0.000000 0.868778
vn -0.327203 0.000002 0.944954
vn -0.327203 0.000002 0.944954
vn -0.144994 0.000001 0.989433
vn -0.144994 0.000001 0.989433
vn 0.056599 0.000000 0.998397
vn 0.056599 0.000000 0.998397
vn 0.281196 0.000002 0.959650
vn 0.281196 0.000002 0.959650
vn 0.523579 0.000003 0.851977
vn 0.523580 0.000003 0.851977
vn 0.757335 0.000003 0.653027
vn 0.757335 0.000003 0.653027
vn 0.930977 0.000003 0.365077
vn 0.930977 0.000003 0.365077
vn 0.999312 0.000003 0.037091
vn 0.999312 0.000003 0.037091
vn 0.964242 0.000003 -0.265023
vn 0.964242 0.000003 -0.265023
vn 0.862166 0.000003 -0.506626
vn 0.862166 0.000003 -0.506626
vn 0.726623 0.000002 -0.687036
vn 0.726623 0.000002 -0.687036
vn 0.575050 0.000002 -0.818119
vn 0.575050 0.000002 -0.818118
vn 0.412699 0.000002 -0.910868
vn 0.412698 0.000002 -0.910868
vn 0.238184 0.000002 -0.971220
vn 0.238184 0.000002 -0.971220
vn 0.046941 0.000001 -0.998898
vn 0.046941 0.000001 -0.998898
vn -0.166014 0.000002 -0.986123
vn -0.166014 0.000002 -0.986123
vn -0.401163 0.000004 -0.916007
vn -0.401163 0.000004 -0.916007
vn -0.644317 0.000008 -0.764758
vn -0.644318 0.000008 -0.764758
vn -0.855275 0.000011 -0.518174
vn -0.855275 0.000011 -0.518174
vn -0.979457 0.000005 -0.201651
vn -0.979457 0.000005 -0.201651
vn -0.992729 0.000001 0.120375
vn -0.992729 0.000001 0.120375
s 1
g svastika
usemtl initialShadingGroup
f 2/2/1 1/1/2 26/27/3 27/28/4
f 3/3/5 2/2/1 27/28/4 28/29/6
f 4/4/7 3/3/5 28/29/6 29/30/8
f 5/5/9 4/4/7 29/30/8 30/31/10
f 6/6/11 5/5/9 30/31/10 31/32/12
f 7/7/13 6/6/11 31/32/12 32/33/14
f 8/8/15 7/7/13 32/33/14 33/34/16
f 9/9/17 8/8/15 33/34/16 34/35/18
f 10/10/19 9/9/17 34/35/18 35/36/20
f 11/11/21 10/10/19 35/36/20 36/37/22
f 12/12/23 11/11/21 36/37/22 37/38/24
f 13/13/25 12/12/23 37/38/24 38/39/26
f 14/14/27 13/13/25 38/39/26 39/40/28
f 15/15/29 14/14/27 39/40/28 40/41/30
f 16/16/31 15/15/29 40/41/30 41/42/32
f 17/17/33 16/16/31 41/42/32 42/43/34
f 18/18/35 17/17/33 42/43/34 43/44/36
f 19/19/37 18/18/35 43/44/36 44/45/38
f 20/20/39 19/19/37 44/45/38 45/46/40
f 21/21/41 20/20/39 45/46/40 46/47/42
f 22/22/43 21/21/41 46/47/42 47/48/44
f 23/23/45 22/22/43 47/48/44 48/49/46
f 24/24/47 23/23/45 48/49/46 49/50/48
f 25/25/49 24/24/47 49/50/48 50/51/50
f 1/26/2 25/25/49 50/51/50 26/52/3
s 2
f 27/28/51 26/27/52 51/53/53 52/54/54
f 28/29/55 27/28/51 52/54/54 53/55/56
f 29/30/57 28/29/55 53/55/56 54/56/58
f 30/31/59 29/30/57 54/56/58 55/57/60
f 31/32/61 30/31/59 55/57/60 56/58/62
f 32/33/63 31/32/61 56/58/62 57/59/64
f 33/34/65 32/33/63 57/59/64 58/60/66
f 34/35/67 33/34/65 58/60/66 59/61/68
f 35/36/69 34/35/67 59/61/68 60/62/70
f 36/37/71 35/36/69 60/62/70 61/63/72
f 37/38/73 36/37/71 61/63/72 62/64/74
f 38/39/75 37/38/73 62/64/74 63/65/76
f 39/40/77 38/39/75 63/65/76 64/66/78
f 40/41/79 39/40/77 64/66/78 65/67/80
f 41/42/81 40/41/79 65/67/80 66/68/82
f 42/43/83 41/42/81 66/68/82 67/69/84
f 43/44/85 42/43/83 67/69/84 68/70/86
f 44/45/87 43/44/85 68/70/86 69/71/88
f 45/46/89 44/45/87 69/71/88 70/72/90
f 46/47/91 45/46/89 70/72/90 71/73/92
f 47/48/93 46/47/91 71/73/92 72/74/94
f 48/49/95 47/48/93 72/74/94 73/75/96
f 49/50/97 48/49/95 73/75/96 74/76/98
f 50/51/99 49/50/97 74/76/98 75/77/100
f 26/52/52 50/51/99 75/77/100 51/78/53
s 3
f 52/54/101 51/53/102 76/79/103 77/80/104
f 53/55/105 52/54/101 77/80/104 78/81/106
f 54/56/107 53/55/105 78/81/106 79/82/108
f 55/57/109 54/56/107 79/82/108 80/83/110
f 56/58/111 55/57/109 80/83/110 81/84/112
f 57/59/113 56/58/111 81/84/112 82/85/114
f 58/60/115 57/59/113 82/85/114 83/86/116
f 59/61/117 58/60/115 83/86/116 84/87/118
f 60/62/119 59/61/117 84/87/118 85/88/120
f 61/63/121 60/62/119 85/88/120 86/89/122
f 62/64/123 61/63/121 86/89/122 87/90/124
f 63/65/125 62/64/123 87/90/124 88/91/126
f 64/66/127 63/65/125 88/91/126 89/92/128
f 65/67/129 64/66/127 89/92/128 90/93/130
f 66/68/131 65/67/129 90/93/130 91/94/132
f 67/69/133 66/68/131 91/94/132 92/95/134
f 68/70/135 67/69/133 92/95/134 93/96/136
f 69/71/137 68/70/135 93/96/136 94/97/138
f 70/72/139 69/71/137 94/97/138 95/98/140
f 71/73/141 70/72/139 95/98/140 96/99/142
f 72/74/143 71/73/141 96/99/142 97/100/144
f 73/75/145 72/74/143 97/100/144 98/101/146
f 74/76/147 73/75/145 98/101/146 99/102/148
f 75/77/149 74/76/147 99/102/148 100/103/150
f 51/78/102 75/77/149 100/103/150 76/104/103
s 4
f 77/80/151 76/79/152 1/105/153 2/106/154
f 78/81/155 77/80/151 2/106/154 3/107/156
f 79/82/157 78/81/155 3/107/156 4/108/158
f 80/83/159 79/82/157 4/108/158 5/109/160
f 81/84/161 80/83/159 5/109/160 6/110/162
f 82/85/163 81/84/161 6/110/162 7/111/164
f 83/86/165 82/85/163 7/111/164 8/112/166
f 84/87/167 83/86/165 8/112/166 9/113/168
f 85/88/169 84/87/167 9/113/168 10/114/170
f 86/89/171 85/88/169 10/114/170 11/115/172
f 87/90/173 86/89/171 11/115/172 12/116/174
f 88/91/175 87/90/173 12/116/174 13/117/176
f 89/92/177 88/91/175 13/117/176 14/118/178
f 90/93/179 89/92/177 14/118/178 15/119/180
f 91/94/181 90/93/179 15/119/180 16/120/182
f 92/95/183 91/94/181 16/120/182 17/121/184
f 93/96/185 92/95/183 17/121/184 18/122/186
f 94/97/187 93/96/185 18/122/186 19/123/188
f 95/98/189 94/97/187 19/123/188 20/124/190
f 96/99/191 95/98/189 20/124/190 21/125/192
f 97/100/193 96/99/191 21/125/192 22/126/194
f 98/101/195 97/100/193 22/126/194 23/127/196
f 99/102/197 98/101/195 23/127/196 24/128/198
f 100/103/199 99/102/197 24/128/198 25/129/200
f 76/104/152 100/103/199 25/129/200 1/130/153
