# This file uses centimeters as units for non-parametric coordinates.

v 0.130560 1.595334 -1.502921
v 0.090477 1.553426 -1.132093
v 0.481282 1.553426 -1.144222
v 0.556891 1.595334 -1.516153
v 0.057742 1.415479 -0.766432
v 0.413019 1.415479 -0.777458
v 0.031599 1.149398 -0.455606
v 0.351347 1.149398 -0.465529
v 0.010992 0.840104 -0.200982
v 0.295214 0.840104 -0.209803
v -0.005078 0.390938 0.024231
v 0.243616 0.390938 0.016512
v -0.002554 -0.117635 0.124637
v 0.210612 -0.117635 0.118021
vt 0.442308 0.500000
vt 0.447115 0.541667
vt 0.482372 0.541667
vt 0.480769 0.500000
vt 0.451923 0.583333
vt 0.483974 0.583333
vt 0.456731 0.625000
vt 0.485577 0.625000
vt 0.461538 0.666667
vt 0.487180 0.666667
vt 0.466346 0.708333
vt 0.488782 0.708333
vt 0.471154 0.750000
vt 0.490385 0.750000
vn 0.003497 0.993626 0.112670
vn 0.007516 0.970207 0.242161
vn 0.006699 0.976401 0.215862
vn 0.003497 0.993626 0.112670
vn 0.016009 0.856531 0.515848
vn 0.015153 0.872572 0.488250
vn 0.022148 0.700144 0.713658
vn 0.021854 0.709703 0.704162
vn 0.026190 0.535897 0.843877
vn 0.025956 0.547582 0.836349
vn 0.029298 0.328583 0.944021
vn 0.029196 0.337890 0.940733
vn 0.030433 0.193744 0.980580
vn 0.030433 0.193744 0.980580
s 1
f 1/1/1 2/2/2 3/3/3 4/4/4
f 2/2/2 5/5/5 6/6/6 3/3/3
f 5/5/5 7/7/7 8/8/8 6/6/6
f 7/7/7 9/9/9 10/10/10 8/8/8
f 9/9/9 11/11/11 12/12/12 10/10/10
f 11/11/11 13/13/13 14/14/14 12/12/12
