# This file uses centimeters as units for non-parametric coordinates.

v 0.954751 1.518638 -1.336599
v 1.262835 1.518638 -1.162426
v 0.728030 1.479138 -1.035719
v 1.010441 1.479138 -0.876060
v 0.524928 1.355031 -0.763787
v 0.781665 1.355031 -0.618643
v 0.351151 1.098743 -0.527800
v 0.582214 1.098743 -0.397170
v 0.203654 0.795864 -0.324023
v 0.409044 0.795864 -0.207907
v 0.074991 0.357254 -0.143330
v 0.254706 0.357254 -0.041729
v 0.024207 -0.164031 -0.058094
v 0.178249 -0.164031 0.028992
v -0.235673 2.851697 -3.054135
v 0.643872 2.851697 -2.990030
v -0.253627 2.728892 -2.264795
v 0.541490 2.728892 -2.206843
v -0.264349 2.412991 -1.562218
v 0.439607 2.412991 -1.510910
v -0.266008 1.835976 -0.981968
v 0.339711 1.835976 -0.937820
v -0.258243 1.204273 -0.538894
v 0.238432 1.204273 -0.502694
v -0.240225 0.521018 -0.268112
v 0.128040 0.521018 -0.241271
v -0.221879 -0.164031 -0.151544
v 0.081115 -0.164031 -0.129461
v -1.518811 2.134825 -1.698318
v -0.999972 2.134825 -2.014509
v -1.221211 2.080859 -1.258633
v -0.745608 2.080859 -1.548475
v -0.950821 1.911305 -0.863597
v -0.518455 1.911305 -1.127089
v -0.714214 1.561166 -0.523997
v -0.325085 1.561166 -0.761140
v -0.507884 1.147373 -0.234076
v -0.161991 1.147373 -0.444870
v -0.323250 0.548147 0.020242
v -0.020594 0.548147 -0.164203
v -0.228338 -0.164031 0.127335
v 0.031082 -0.164031 -0.030761
vt 0.442308 0.500000
vt 0.480769 0.500000
vt 0.447115 0.541667
vt 0.482372 0.541667
vt 0.451923 0.583333
vt 0.483974 0.583333
vt 0.456731 0.625000
vt 0.485577 0.625000
vt 0.461538 0.666667
vt 0.487180 0.666667
vt 0.466346 0.708333
vt 0.488782 0.708333
vt 0.471154 0.750000
vt 0.490385 0.750000
vt 0.442308 0.500000
vt 0.447115 0.541667
vt 0.482372 0.541667
vt 0.480769 0.500000
vt 0.451923 0.583333
vt 0.483974 0.583333
vt 0.456731 0.625000
vt 0.485577 0.625000
vt 0.461538 0.666667
vt 0.487180 0.666667
vt 0.466346 0.708333
vt 0.488782 0.708333
vt 0.471154 0.750000
vt 0.490385 0.750000
vt 0.442308 0.500000
vt 0.447115 0.541667
vt 0.482372 0.541667
vt 0.480769 0.500000
vt 0.451923 0.583333
vt 0.483974 0.583333
vt 0.456731 0.625000
vt 0.485577 0.625000
vt 0.461538 0.666667
vt 0.487180 0.666667
vt 0.466346 0.708333
vt 0.488782 0.708333
vt 0.471154 0.750000
vt 0.490385 0.750000
vn -0.051759 0.994454 0.091553
vn -0.112540 0.973503 0.199064
vn -0.100152 0.979074 0.177153
vn -0.051759 0.994454 0.091553
vn -0.256445 0.853508 0.453609
vn -0.242039 0.870704 0.428127
vn -0.353614 0.695505 0.625484
vn -0.349523 0.703991 0.618248
vn -0.414797 0.538161 0.733707
vn -0.411268 0.549230 0.727465
vn -0.465697 0.323379 0.823743
vn -0.464149 0.332442 0.821004
vn -0.483465 0.186929 0.855172
vn -0.483465 0.186929 0.855172
vn -0.011186 0.988090 0.153473
vn -0.019706 0.962556 0.270364
vn -0.019642 0.962801 0.269498
vn -0.011186 0.988090 0.153473
vn -0.040490 0.830507 0.555534
vn -0.040367 0.831643 0.553841
vn -0.055059 0.652919 0.755424
vn -0.054980 0.654177 0.754341
vn -0.063331 0.490893 0.868915
vn -0.063185 0.494443 0.866911
vn -0.069669 0.285394 0.955875
vn -0.069611 0.288034 0.955087
vn -0.071690 0.165450 0.983609
vn -0.071690 0.165450 0.983609
vn 0.052683 0.994862 0.086448
vn 0.107961 0.978244 0.177154
vn 0.107961 0.978244 0.177154
vn 0.052683 0.994862 0.086448
vn 0.255484 0.871194 0.419224
vn 0.255484 0.871194 0.419224
vn 0.364478 0.713768 0.598073
vn 0.364478 0.713768 0.598073
vn 0.431482 0.559045 0.708020
vn 0.431482 0.559045 0.708020
vn 0.489388 0.340045 0.803037
vn 0.489388 0.340045 0.803037
vn 0.510512 0.194004 0.837700
vn 0.510512 0.194004 0.837700
s 1
f 1/1/1 3/3/2 4/4/3 2/2/4
f 3/3/2 5/5/5 6/6/6 4/4/3
f 5/5/5 7/7/7 8/8/8 6/6/6
f 7/7/7 9/9/9 10/10/10 8/8/8
f 9/9/9 11/11/11 12/12/12 10/10/10
f 11/11/11 13/13/13 14/14/14 12/12/12
s 2
f 15/15/15 17/16/16 18/17/17 16/18/18
f 17/16/16 19/19/19 20/20/20 18/17/17
f 19/19/19 21/21/21 22/22/22 20/20/20
f 21/21/21 23/23/23 24/24/24 22/22/22
f 23/23/23 25/25/25 26/26/26 24/24/24
f 25/25/25 27/27/27 28/28/28 26/26/26
s 3
f 29/29/29 31/30/30 32/31/31 30/32/32
f 31/30/30 33/33/33 34/34/34 32/31/31
f 33/33/33 35/35/35 36/36/36 34/34/34
f 35/35/35 37/37/37 38/38/38 36/36/36
f 37/37/37 39/39/39 40/40/40 38/38/38
f 39/39/39 41/41/41 42/42/42 40/40/40
