# This file uses centimeters as units for non-parametric coordinates.

v -0.521773 -0.080294 -0.374255
v -0.518938 0.151615 -0.262670
v -0.309679 0.345747 -0.465897
v -0.314476 -0.055837 -0.662680
v -0.514487 0.257959 0.005255
v -0.302071 0.529848 0.003061
v -0.513404 0.151615 0.273215
v -0.299993 0.345747 0.472077
v -0.513934 -0.080294 0.384834
v -0.300724 -0.055837 0.668917
v -0.011248 0.418716 -0.544623
v -0.013619 -0.044864 -0.774127
v -0.005624 0.631168 0.000000
v 0.000000 0.418716 0.544623
v 0.002370 -0.044864 0.774127
v 0.288744 0.345747 -0.472077
v 0.289476 -0.055837 -0.668917
v 0.290823 0.529848 -0.003061
v 0.298430 0.345747 0.465898
v 0.303227 -0.055837 0.662680
v 0.502155 0.151615 -0.273215
v 0.502686 -0.080294 -0.384834
v 0.503239 0.257959 -0.005255
v 0.507689 0.151615 0.262670
v 0.510525 -0.080294 0.374255
v -0.591112 -0.084419 0.006046
v 0.579864 -0.084419 -0.006046
vt 0.375000 0.166667
vt 0.500000 0.166667
vt 0.500000 0.333333
vt 0.375000 0.333333
vt 0.625000 0.166667
vt 0.625000 0.333333
vt 0.750000 0.166667
vt 0.750000 0.333333
vt 0.875000 0.166667
vt 0.875000 0.333333
vt 0.500000 0.500000
vt 0.375000 0.500000
vt 0.625000 0.500000
vt 0.750000 0.500000
vt 0.875000 0.500000
vt 0.500000 0.666667
vt 0.375000 0.666667
vt 0.625000 0.666667
vt 0.750000 0.666667
vt 0.875000 0.666667
vt 0.500000 0.833333
vt 0.375000 0.833333
vt 0.625000 0.833333
vt 0.750000 0.833333
vt 0.875000 0.833333
vt 0.437500 0.000000
vt 0.562500 0.000000
vt 0.687500 0.000000
vt 0.812500 0.000000
vt 0.437500 1.000000
vt 0.562500 1.000000
vt 0.687500 1.000000
vt 0.812500 1.000000
vn -0.790375 0.275802 -0.547029
vn -0.790375 0.275802 -0.547029
vn -0.790375 0.275802 -0.547029
vn -0.790375 0.275802 -0.547029
vn -0.769720 0.598109 -0.223152
vn -0.769720 0.598109 -0.223152
vn -0.769720 0.598109 -0.223152
vn -0.769720 0.598109 -0.223152
vn -0.764948 0.598109 0.239000
vn -0.764948 0.598109 0.239000
vn -0.764948 0.598109 0.239000
vn -0.764948 0.598109 0.239000
vn -0.778909 0.275801 0.563235
vn -0.778909 0.275801 0.563235
vn -0.778909 0.275801 0.563235
vn -0.778909 0.275801 0.563235
vn -0.327423 0.419802 -0.846499
vn -0.327423 0.419802 -0.846499
vn -0.327423 0.419802 -0.846499
vn -0.327423 0.419802 -0.846499
vn -0.307236 0.887575 -0.343244
vn -0.307236 0.887575 -0.343244
vn -0.307236 0.887575 -0.343244
vn -0.307236 0.887575 -0.343244
vn -0.300082 0.887575 0.349515
vn -0.300082 0.887575 0.349515
vn -0.300082 0.887575 0.349515
vn -0.300082 0.887575 0.349515
vn -0.309871 0.419802 0.853080
vn -0.309871 0.419802 0.853080
vn -0.309871 0.419802 0.853080
vn -0.309871 0.419802 0.853080
vn 0.309872 0.419802 -0.853080
vn 0.309872 0.419802 -0.853080
vn 0.309872 0.419802 -0.853080
vn 0.309872 0.419802 -0.853080
vn 0.300082 0.887575 -0.349515
vn 0.300082 0.887575 -0.349515
vn 0.300082 0.887575 -0.349515
vn 0.300082 0.887575 -0.349515
vn 0.307236 0.887575 0.343243
vn 0.307236 0.887575 0.343243
vn 0.307236 0.887575 0.343243
vn 0.307236 0.887575 0.343244
vn 0.327422 0.419803 0.846499
vn 0.327422 0.419803 0.846499
vn 0.327422 0.419802 0.846499
vn 0.327422 0.419803 0.846499
vn 0.778909 0.275802 -0.563235
vn 0.778909 0.275802 -0.563235
vn 0.778909 0.275802 -0.563235
vn 0.778909 0.275802 -0.563235
vn 0.764948 0.598109 -0.239000
vn 0.764948 0.598109 -0.239000
vn 0.764948 0.598109 -0.239000
vn 0.764948 0.598109 -0.239000
vn 0.769720 0.598109 0.223152
vn 0.769720 0.598109 0.223152
vn 0.769720 0.598109 0.223152
vn 0.769720 0.598109 0.223152
vn 0.790375 0.275802 0.547029
vn 0.790375 0.275802 0.547029
vn 0.790375 0.275802 0.547029
vn 0.790375 0.275802 0.547029
vn -0.979292 0.097377 -0.177494
vn -0.979292 0.097377 -0.177494
vn -0.979292 0.097377 -0.177494
vn -0.973484 0.217705 -0.070241
vn -0.973484 0.217705 -0.070241
vn -0.973484 0.217705 -0.070241
vn -0.971826 0.217705 0.090330
vn -0.971826 0.217705 0.090330
vn -0.971826 0.217705 0.090330
vn -0.975418 0.097377 0.197680
vn -0.975418 0.097377 0.197680
vn -0.975418 0.097377 0.197680
vn 0.975418 0.097377 -0.197681
vn 0.975418 0.097377 -0.197681
vn 0.975418 0.097377 -0.197681
vn 0.971826 0.217705 -0.090331
vn 0.971826 0.217705 -0.090331
vn 0.971826 0.217705 -0.090331
vn 0.973484 0.217705 0.070241
vn 0.973484 0.217705 0.070241
vn 0.973484 0.217705 0.070241
vn 0.979292 0.097378 0.177494
vn 0.979292 0.097378 0.177494
vn 0.979292 0.097378 0.177494
s off
f 1/1/1 2/2/2 3/3/3 4/4/4
f 2/2/5 5/5/6 6/6/7 3/3/8
f 5/5/9 7/7/10 8/8/11 6/6/12
f 7/7/13 9/9/14 10/10/15 8/8/16
f 4/4/17 3/3/18 11/11/19 12/12/20
f 3/3/21 6/6/22 13/13/23 11/11/24
f 6/6/25 8/8/26 14/14/27 13/13/28
f 8/8/29 10/10/30 15/15/31 14/14/32
f 12/12/33 11/11/34 16/16/35 17/17/36
f 11/11/37 13/13/38 18/18/39 16/16/40
f 13/13/41 14/14/42 19/19/43 18/18/44
f 14/14/45 15/15/46 20/20/47 19/19/48
f 17/17/49 16/16/50 21/21/51 22/22/52
f 16/16/53 18/18/54 23/23/55 21/21/56
f 18/18/57 19/19/58 24/24/59 23/23/60
f 19/19/61 20/20/62 25/25/63 24/24/64
f 2/2/65 1/1/66 26/26/67
f 5/5/68 2/2/69 26/27/70
f 7/7/71 5/5/72 26/28/73
f 9/9/74 7/7/75 26/29/76
f 22/22/77 21/21/78 27/30/79
f 21/21/80 23/23/81 27/31/82
f 23/23/83 24/24/84 27/32/85
f 24/24/86 25/25/87 27/33/88
