# This file uses centimeters as units for non-parametric coordinates.

v 9.293591 -13.198175 122.714012
v 66.255844 -13.198175 164.938995
v 133.753067 -13.198175 190.671661
v 206.211594 -13.198175 199.227676
v 278.572388 -13.198175 189.880539
v 345.784332 -13.198175 163.412033
v 400.127838 -13.198175 122.779343
v 86.685715 -13.198269 53.657387
v 117.129547 -13.198269 77.762505
v 158.406464 -13.198269 94.251480
v 205.669632 -13.198274 100.015205
v 252.867035 -13.198274 93.735481
v 293.961365 -13.198274 76.796516
v 321.985992 -13.198269 54.572227
v 65.928726 -13.198247 72.178757
v 67.702591 -13.198256 70.595940
v 103.256126 -13.198247 101.535843
v 104.441628 -13.198256 99.504395
v 151.613266 -13.198247 120.819977
v 152.194458 -13.198256 118.546844
v 205.819458 -13.198247 127.443008
v 205.806656 -13.198256 125.097588
v 259.950104 -13.198247 120.228142
v 259.344116 -13.198256 117.961494
v 308.093658 -13.198247 100.416878
v 306.886047 -13.198256 98.398491
v 342.944061 -13.198247 72.865753
v 341.153015 -13.198256 71.302406
v 47.328331 -13.198224 88.775734
v 45.563049 -13.198224 90.350906
v 91.792809 -13.198224 121.179131
v 90.608551 -13.198215 123.208443
v 146.291351 -13.198224 141.634003
v 145.710190 -13.198215 143.906937
v 205.934784 -13.198224 148.554230
v 205.947601 -13.198215 150.899689
v 265.499146 -13.198224 140.982803
v 266.105042 -13.198215 143.249268
v 319.770905 -13.198224 119.933769
v 320.977234 -13.198215 121.950020
v 361.724640 -13.198224 89.258575
v 363.507019 -13.198224 90.814339
v 28.842278 -13.198211 105.270798
v 27.082315 -13.198202 106.841187
v 79.390259 -13.198184 142.431976
v 78.207222 -13.198184 144.459229
v 140.204681 -13.198184 165.439178
v 139.623932 -13.198184 167.710556
v 206.069138 -13.198184 173.148987
v 206.081955 -13.198184 175.494385
v 271.845520 -13.198184 164.720016
v 272.451019 -13.198184 166.984909
v 332.404846 -13.198184 141.049881
v 333.609955 -13.198184 143.064072
v 380.389801 -13.198211 105.550720
v 382.166779 -13.198202 107.101799
vt 0.552384 0.750000
vt 0.550000 0.750000
vt 0.602384 0.750000
vt 0.600000 0.750000
vt 0.652384 0.750000
vt 0.650000 0.750000
vt 0.702384 0.750000
vt 0.700000 0.750000
vt 0.752384 0.750000
vt 0.750000 0.750000
vt 0.802384 0.750000
vt 0.800000 0.750000
vt 0.549684 0.752080
vt 0.550267 0.797750
vt 0.599706 0.752250
vt 0.600249 0.797593
vt 0.649828 0.752407
vt 0.650146 0.797500
vt 0.700000 0.752500
vt 0.700000 0.797500
vt 0.750146 0.752407
vt 0.749828 0.797500
vt 0.800249 0.752250
vt 0.799706 0.797593
vt 0.850268 0.752080
vt 0.849684 0.797750
vt 0.597616 0.750000
vt 0.597616 0.750000
vt 0.552384 0.750000
vt 0.647616 0.750000
vt 0.647616 0.750000
vt 0.602384 0.750000
vt 0.697616 0.750000
vt 0.697616 0.750000
vt 0.652384 0.750000
vt 0.747616 0.750000
vt 0.747616 0.750000
vt 0.702384 0.750000
vt 0.797616 0.750000
vt 0.797616 0.750000
vt 0.752384 0.750000
vt 0.847616 0.750000
vt 0.847616 0.750000
vt 0.802384 0.750000
vt 0.550000 0.750000
vt 0.550000 0.750000
vt 0.550000 0.750000
vt 0.600000 0.750000
vt 0.600000 0.750000
vt 0.600000 0.750000
vt 0.650000 0.750000
vt 0.650000 0.750000
vt 0.650000 0.750000
vt 0.700000 0.750000
vt 0.700000 0.750000
vt 0.700000 0.750000
vt 0.750000 0.750000
vt 0.750000 0.750000
vt 0.750000 0.750000
vt 0.800000 0.750000
vt 0.800000 0.750000
vt 0.800000 0.750000
vt 0.597767 0.800000
vt 0.597767 0.800000
vt 0.550000 0.800000
vt 0.550000 0.800000
vt 0.647767 0.800000
vt 0.647767 0.800000
vt 0.600000 0.800000
vt 0.600000 0.800000
vt 0.697767 0.800000
vt 0.697767 0.800000
vt 0.650000 0.800000
vt 0.650000 0.800000
vt 0.747767 0.800000
vt 0.747767 0.800000
vt 0.700000 0.800000
vt 0.700000 0.800000
vt 0.797767 0.800000
vt 0.797767 0.800000
vt 0.750000 0.800000
vt 0.750000 0.800000
vt 0.847767 0.800000
vt 0.847767 0.800000
vt 0.800000 0.800000
vt 0.800000 0.800000
vn 0.000000 1.000000 -0.000001
vn 0.000001 1.000000 -0.000001
vn 0.000001 1.000000 -0.000001
vn 0.000000 1.000000 -0.000001
vn 0.000000 1.000000 -0.000001
vn 0.000000 1.000000 -0.000001
vn -0.000000 1.000000 -0.000001
vn -0.000000 1.000000 -0.000001
vn -0.000000 1.000000 -0.000001
vn -0.000000 1.000000 -0.000001
vn -0.000000 1.000000 -0.000001
vn -0.000000 1.000000 -0.000001
vn -0.000001 1.000000 -0.000001
vn -0.000001 1.000000 -0.000001
vn 0.000000 1.000000 -0.000001
vn 0.000000 1.000000 -0.000001
vn 0.000000 1.000000 -0.000001
vn 0.000000 1.000000 -0.000001
vn 0.000000 1.000000 -0.000001
vn 0.000000 1.000000 -0.000001
vn -0.000000 1.000000 -0.000001
vn -0.000000 1.000000 -0.000001
vn -0.000000 1.000000 -0.000001
vn -0.000000 1.000000 -0.000001
vn -0.000000 1.000000 -0.000001
vn -0.000000 1.000000 -0.000001
vn -0.000000 1.000000 -0.000001
vn -0.000000 1.000000 -0.000001
vn 0.000000 1.000000 -0.000001
vn 0.000000 1.000000 -0.000001
vn 0.000000 1.000000 -0.000001
vn 0.000000 1.000000 -0.000001
vn 0.000000 1.000000 -0.000000
vn 0.000000 1.000000 -0.000000
vn -0.000000 1.000000 -0.000000
vn -0.000000 1.000000 -0.000000
vn -0.000000 1.000000 -0.000000
vn -0.000000 1.000000 -0.000000
vn -0.000000 1.000000 -0.000001
vn -0.000000 1.000000 -0.000001
vn -0.000000 1.000000 -0.000001
vn -0.000000 1.000000 -0.000001
vn 0.000000 1.000000 -0.000000
vn 0.000000 1.000000 -0.000000
vn 0.000000 1.000000 -0.000000
vn 0.000000 1.000000 -0.000000
vn 0.000000 1.000000 -0.000001
vn 0.000000 1.000000 -0.000001
vn 0.000000 1.000000 -0.000001
vn 0.000000 1.000000 -0.000001
vn -0.000000 1.000000 -0.000001
vn -0.000000 1.000000 -0.000001
vn -0.000000 1.000000 -0.000001
vn -0.000000 1.000000 -0.000001
vn -0.000000 1.000000 -0.000000
vn -0.000000 1.000000 -0.000000
s 1
g strade
f 17/16/1 15/14/2 29/13/3 31/15/4
f 19/18/5 17/16/1 31/15/4 33/17/6
f 21/20/7 19/18/5 33/17/6 35/19/8
f 23/22/9 21/20/7 35/19/8 37/21/10
f 25/24/11 23/22/9 37/21/10 39/23/12
f 27/26/13 25/24/11 39/23/12 41/25/14
s 2
f 32/27/15 30/28/16 43/1/17 45/29/18
f 34/30/19 32/31/15 45/3/18 47/32/20
f 36/33/21 34/34/19 47/5/20 49/35/22
f 38/36/23 36/37/21 49/7/22 51/38/24
f 40/39/25 38/40/23 51/9/24 53/41/26
f 42/42/27 40/43/25 53/11/26 55/44/28
s 3
f 46/2/29 44/45/30 1/46/31 2/47/32
f 48/4/33 46/48/29 2/49/32 3/50/34
f 50/6/35 48/51/33 3/52/34 4/53/36
f 52/8/37 50/54/35 4/55/36 5/56/38
f 54/10/39 52/57/37 5/58/38 6/59/40
f 56/12/41 54/60/39 6/61/40 7/62/42
s 4
f 16/63/43 18/64/44 9/65/45 8/66/46
f 18/67/44 20/68/47 10/69/48 9/70/45
f 20/71/47 22/72/49 11/73/50 10/74/48
f 22/75/49 24/76/51 12/77/52 11/78/50
f 24/79/51 26/80/53 13/81/54 12/82/52
f 26/83/53 28/84/55 14/85/56 13/86/54
