# This file uses centimeters as units for non-parametric coordinates.

v 2.121405 0.000002 2.121402
v 2.121405 4.242807 2.121402
v -2.121401 0.000002 2.121402
v -2.121401 4.242807 2.121402
v -2.121401 0.000002 -2.121402
v -2.121401 4.242807 -2.121402
v 2.121405 0.000002 -2.121402
v 2.121405 4.242807 -2.121402
v 2.121405 -4.242804 2.121402
v -2.121401 -4.242804 2.121402
v -2.121401 -4.242804 -2.121402
v 2.121405 -4.242804 -2.121402
v 2.121405 -8.485609 2.121402
v -2.121401 -8.485609 2.121402
v -2.121401 -8.485609 -2.121402
v 2.121405 -8.485609 -2.121402
v 2.121401 8.485609 2.121402
v -2.121405 8.485609 2.121402
v -2.121405 8.485609 -2.121402
v 2.121401 8.485609 -2.121402
vt 0.129849 0.753256
vt 0.129849 0.869944
vt 0.013162 0.869944
vt 0.013162 0.753256
vt 0.129849 0.986631
vt 0.013162 0.986631
vt 0.129849 0.636569
vt 0.013162 0.636569
vt 0.129849 0.519882
vt 0.013162 0.519882
vt 0.129849 0.753256
vt 0.129849 0.869944
vt 0.013162 0.869944
vt 0.013162 0.753256
vt 0.129849 0.986631
vt 0.013162 0.986631
vt 0.129849 0.636570
vt 0.013162 0.636570
vt 0.129849 0.519882
vt 0.013162 0.519882
vt 0.867192 0.889412
vt 0.750505 0.889412
vt 0.750505 0.772725
vt 0.867192 0.772725
vt 0.750505 0.772725
vt 0.867192 0.772725
vt 0.867192 0.889412
vt 0.750505 0.889412
vt 0.129849 0.753256
vt 0.129849 0.869944
vt 0.013162 0.869944
vt 0.013162 0.753256
vt 0.129849 0.986631
vt 0.013162 0.986631
vt 0.129849 0.636570
vt 0.013162 0.636570
vt 0.129849 0.519882
vt 0.013162 0.519882
vt 0.129849 0.753257
vt 0.129869 0.869944
vt 0.013182 0.869964
vt 0.013162 0.753276
vt 0.129888 0.986631
vt 0.013201 0.986651
vt 0.129829 0.636569
vt 0.013142 0.636589
vt 0.129809 0.519882
vt 0.013122 0.519902
vn 0.000000 0.000000 1.000000
vn 0.000000 0.000000 1.000000
vn 0.000000 0.000000 1.000000
vn 0.000000 0.000000 1.000000
vn 0.000000 0.000000 -1.000000
vn 0.000000 0.000000 -1.000000
vn 0.000000 0.000000 -1.000000
vn 0.000000 0.000000 -1.000000
vn 1.000000 0.000000 0.000000
vn 1.000000 0.000000 0.000000
vn 1.000000 0.000000 0.000000
vn 1.000000 0.000000 0.000000
vn -1.000000 0.000000 0.000000
vn -1.000000 0.000000 0.000000
vn -1.000000 0.000000 0.000000
vn -1.000000 0.000000 0.000000
vn 0.000000 0.000000 1.000000
vn 0.000000 0.000000 1.000000
vn 0.000000 0.000000 1.000000
vn 0.000000 0.000000 1.000000
vn 0.000000 0.000000 -1.000000
vn 0.000000 0.000000 -1.000000
vn 0.000000 0.000000 -1.000000
vn 0.000000 0.000000 -1.000000
vn 1.000000 0.000000 0.000000
vn 1.000000 0.000000 0.000000
vn 1.000000 0.000000 0.000000
vn 1.000000 0.000000 0.000000
vn -1.000000 0.000000 0.000000
vn -1.000000 0.000000 0.000000
vn -1.000000 0.000000 0.000000
vn -1.000000 0.000000 0.000000
vn 0.000000 0.000000 1.000000
vn 0.000000 0.000000 1.000000
vn 0.000000 0.000000 1.000000
vn 0.000000 0.000000 1.000000
vn 0.000000 0.000000 -1.000000
vn 0.000000 0.000000 -1.000000
vn 0.000000 0.000000 -1.000000
vn 0.000000 0.000000 -1.000000
vn 1.000000 0.000000 0.000000
vn 1.000000 0.000000 0.000000
vn 1.000000 0.000000 0.000000
vn 1.000000 0.000000 0.000000
vn -1.000000 0.000000 0.000000
vn -1.000000 0.000000 0.000000
vn -1.000000 0.000000 0.000000
vn -1.000000 0.000000 0.000000
vn 0.000000 0.000000 1.000000
vn 0.000000 0.000000 1.000000
vn 0.000000 0.000000 1.000000
vn 0.000000 0.000000 1.000000
vn 0.000000 0.000000 -1.000000
vn 0.000000 0.000000 -1.000000
vn 0.000000 0.000000 -1.000000
vn 0.000000 0.000000 -1.000000
vn 1.000000 0.000001 0.000000
vn 1.000000 0.000001 0.000000
vn 1.000000 0.000001 0.000000
vn 1.000000 0.000001 0.000000
vn -1.000000 -0.000001 0.000000
vn -1.000000 -0.000001 0.000000
vn -1.000000 -0.000001 0.000000
vn -1.000000 -0.000001 0.000000
vn 0.000000 -1.000000 0.000000
vn 0.000000 -1.000000 0.000000
vn 0.000000 -1.000000 0.000000
vn 0.000000 -1.000000 0.000000
vn 0.000000 1.000000 0.000000
vn 0.000000 1.000000 0.000000
vn 0.000000 1.000000 0.000000
vn 0.000000 1.000000 0.000000
s off
f 1/29/1 2/30/2 4/31/3 3/32/4
f 5/39/5 6/40/6 8/41/7 7/42/8
f 7/1/9 8/2/10 2/3/11 1/4/12
f 3/11/13 4/12/14 6/13/15 5/14/16
f 9/35/17 1/29/18 3/32/19 10/36/20
f 11/45/21 5/39/22 7/42/23 12/46/24
f 12/7/25 7/1/26 1/4/27 9/8/28
f 10/17/29 3/11/30 5/14/31 11/18/32
f 13/37/33 9/35/34 10/36/35 14/38/36
f 15/47/37 11/45/38 12/46/39 16/48/40
f 16/9/41 12/7/42 9/8/43 13/10/44
f 14/19/45 10/17/46 11/18/47 15/20/48
f 2/30/49 17/33/50 18/34/51 4/31/52
f 6/40/53 19/43/54 20/44/55 8/41/56
f 8/2/57 20/5/58 17/6/59 2/3/60
f 4/12/61 18/15/62 19/16/63 6/13/64
f 14/21/65 15/22/66 16/23/67 13/24/68
f 18/25/69 17/26/70 20/27/71 19/28/72
