# This file uses centimeters as units for non-parametric coordinates.

v -4.242804 -2.121402 2.121402
v -0.000001 -2.121402 2.121402
v -0.000001 -2.121402 -2.121401
v -4.242804 -2.121402 -2.121401
v -4.242805 -6.364205 2.121402
v -0.000001 -6.364205 2.121402
v -0.000001 -6.364205 -2.121402
v -4.242805 -6.364205 -2.121401
v 4.242804 -2.121402 2.121402
v 4.242804 -6.364205 2.121402
v 4.242804 -2.121402 -2.121401
v 4.242804 -6.364205 -2.121401
v -4.242805 6.364205 2.121402
v -0.000001 6.364205 2.121402
v -0.000001 6.364205 -2.121401
v -4.242805 6.364205 -2.121401
vt 0.512651 0.132112
vt 0.512651 0.015425
vt 0.629338 0.015425
vt 0.629338 0.132112
vt 0.629338 0.365487
vt 0.512651 0.365487
vt 0.502255 0.499978
vt 0.502255 0.383291
vt 0.618942 0.383291
vt 0.618942 0.499978
vt 0.380763 0.139083
vt 0.380763 0.372457
vt 0.264076 0.372457
vt 0.264076 0.139082
vt 0.264068 0.139091
vt 0.380755 0.139082
vt 0.380763 0.255769
vt 0.264076 0.255778
vt 0.380772 0.372457
vt 0.264085 0.372465
vt 0.618942 0.499978
vt 0.502255 0.499978
vt 0.502255 0.383291
vt 0.618942 0.383291
vt 0.618942 0.499978
vt 0.502255 0.499978
vt 0.502255 0.383291
vt 0.618942 0.383291
vt 0.013738 0.132113
vt 0.013738 0.015425
vt 0.130425 0.015425
vt 0.130425 0.132113
vt 0.247112 0.015425
vt 0.247112 0.132113
vt 0.130425 0.365487
vt 0.013738 0.365487
vt 0.387687 0.132129
vt 0.387670 0.015442
vt 0.504358 0.015425
vt 0.504374 0.132112
vt 0.271000 0.132146
vt 0.270983 0.015459
vt 0.504408 0.365487
vt 0.387721 0.365504
vn 0.000000 0.000000 1.000000
vn 0.000000 0.000000 1.000000
vn 0.000000 0.000000 1.000000
vn 0.000000 0.000000 1.000000
vn -0.000000 0.000000 -1.000000
vn -0.000000 0.000000 -1.000000
vn -0.000000 0.000000 -1.000000
vn -0.000000 0.000000 -1.000000
vn -1.000000 0.000000 0.000000
vn -1.000000 0.000000 0.000000
vn -1.000000 0.000000 0.000000
vn -1.000000 0.000000 0.000000
vn 0.000000 -1.000000 0.000000
vn 0.000000 -1.000000 0.000000
vn 0.000000 -1.000000 0.000000
vn 0.000000 -1.000000 0.000000
vn 0.000000 0.000000 1.000000
vn 0.000000 0.000000 1.000000
vn 0.000000 0.000000 1.000000
vn 0.000000 0.000000 1.000000
vn 1.000000 0.000000 0.000000
vn 1.000000 0.000000 0.000000
vn 1.000000 0.000000 0.000000
vn 1.000000 0.000000 0.000000
vn 0.000000 0.000000 -1.000000
vn 0.000000 0.000000 -1.000000
vn 0.000000 0.000000 -1.000000
vn 0.000000 0.000000 -1.000000
vn 0.000000 -1.000000 0.000000
vn 0.000000 -1.000000 0.000000
vn 0.000000 -1.000000 0.000000
vn 0.000000 -1.000000 0.000000
vn 0.000000 1.000000 0.000000
vn 0.000000 1.000000 0.000000
vn 0.000000 1.000000 0.000000
vn 0.000000 1.000000 0.000000
vn -0.000000 0.000000 1.000000
vn -0.000000 0.000000 1.000000
vn -0.000000 0.000000 1.000000
vn -0.000000 0.000000 1.000000
vn 1.000000 0.000000 0.000000
vn 1.000000 0.000000 0.000000
vn 1.000000 0.000000 0.000000
vn 1.000000 0.000000 0.000000
vn -0.000000 0.000000 -1.000000
vn -0.000000 0.000000 -1.000000
vn -0.000000 0.000000 -1.000000
vn -0.000000 0.000000 -1.000000
vn -1.000000 -0.000000 0.000000
vn -1.000000 -0.000000 0.000000
vn -1.000000 -0.000000 0.000000
vn -1.000000 -0.000000 0.000000
vn 0.000000 1.000000 0.000000
vn 0.000000 1.000000 0.000000
vn 0.000000 1.000000 0.000000
vn 0.000000 1.000000 0.000000
s off
f 1/29/1 5/30/2 6/31/3 2/32/4
f 3/37/5 7/38/6 8/39/7 4/40/8
f 4/1/9 8/2/10 5/3/11 1/4/12
f 5/15/13 8/16/14 7/17/15 6/18/16
f 2/32/17 6/31/18 10/33/19 9/34/20
f 9/7/21 10/8/22 12/9/23 11/10/24
f 11/41/25 12/42/26 7/38/27 3/37/28
f 6/18/29 7/17/30 12/19/31 10/20/32
f 3/21/33 2/22/34 9/23/35 11/24/36
f 2/32/37 14/35/38 13/36/39 1/29/40
f 3/11/41 15/12/42 14/13/43 2/14/44
f 4/40/45 16/43/46 15/44/47 3/37/48
f 1/4/49 13/5/50 16/6/51 4/1/52
f 16/25/53 13/26/54 14/27/55 15/28/56
