# This file uses centimeters as units for non-parametric coordinates.

v -6.364206 0.000000 2.121402
v -2.121402 0.000000 2.121402
v -6.364206 4.242804 2.121402
v -2.121402 4.242804 2.121402
v -6.364206 4.242804 -2.121402
v -2.121402 4.242804 -2.121402
v -6.364206 0.000000 -2.121402
v -2.121402 0.000000 -2.121402
v -2.121402 -4.242804 2.121402
v -2.121402 -4.242804 -2.121402
v 6.364206 0.000000 2.121402
v 2.121402 0.000000 2.121402
v 6.364206 4.242804 2.121402
v 2.121402 4.242804 2.121402
v 6.364206 4.242804 -2.121402
v 2.121402 4.242804 -2.121402
v 6.364206 0.000000 -2.121402
v 2.121402 0.000000 -2.121402
v 2.121402 -4.242804 2.121402
v 2.121402 -4.242804 -2.121402
vt 0.876632 0.772725
vt 0.993319 0.772733
vt 0.993310 0.889420
vt 0.876623 0.889412
vt 0.876637 0.772725
vt 0.993324 0.772744
vt 0.993305 0.889431
vt 0.876618 0.889412
vt 0.993313 0.772725
vt 0.993316 0.889412
vt 0.876629 0.889414
vt 0.876626 0.772727
vt 0.993313 0.772725
vt 0.993316 0.889412
vt 0.876629 0.889414
vt 0.876626 0.772727
vt 0.378482 0.772733
vt 0.495169 0.772730
vt 0.495172 0.889417
vt 0.378485 0.889420
vt 0.611857 0.772727
vt 0.611859 0.889415
vt 0.728544 0.772725
vt 0.728546 0.889412
vt 0.876631 0.889418
vt 0.876624 0.772731
vt 0.993312 0.772725
vt 0.993318 0.889412
vt 0.876629 0.889414
vt 0.876626 0.772727
vt 0.993313 0.772725
vt 0.993316 0.889412
vt 0.993316 0.889412
vt 0.876629 0.889414
vt 0.876626 0.772727
vt 0.993313 0.772725
vt 0.260741 0.636575
vt 0.377428 0.636572
vt 0.377431 0.753259
vt 0.260744 0.753262
vt 0.494115 0.636569
vt 0.494118 0.753257
vt 0.377425 0.519885
vt 0.494112 0.519882
vt 0.610802 0.636567
vt 0.610805 0.753254
vt 0.371723 0.497768
vt 0.255035 0.497755
vt 0.255049 0.381068
vt 0.371736 0.381081
vt 0.138362 0.381055
vt 0.138348 0.497742
vt 0.255062 0.264381
vt 0.138375 0.264367
vt 0.021661 0.497728
vt 0.021675 0.381041
vn -0.000000 0.000000 1.000000
vn -0.000000 0.000000 1.000000
vn -0.000000 0.000000 1.000000
vn -0.000000 0.000000 1.000000
vn 0.000000 1.000000 0.000000
vn 0.000000 1.000000 0.000000
vn 0.000000 1.000000 0.000000
vn 0.000000 1.000000 0.000000
vn -0.000000 0.000000 -1.000000
vn -0.000000 0.000000 -1.000000
vn -0.000000 0.000000 -1.000000
vn -0.000000 0.000000 -1.000000
vn 0.000000 -1.000000 0.000000
vn 0.000000 -1.000000 0.000000
vn 0.000000 -1.000000 0.000000
vn 0.000000 -1.000000 0.000000
vn -1.000000 0.000000 0.000000
vn -1.000000 0.000000 0.000000
vn -1.000000 0.000000 0.000000
vn -1.000000 0.000000 0.000000
vn 0.000000 -0.000000 1.000000
vn 0.000000 -0.000000 1.000000
vn 0.000000 -0.000000 1.000000
vn 0.000000 -0.000000 1.000000
vn 0.000000 -0.000000 -1.000000
vn 0.000000 -0.000000 -1.000000
vn 0.000000 -0.000000 -1.000000
vn 0.000000 -0.000000 -1.000000
vn 0.000000 -1.000000 0.000000
vn 0.000000 -1.000000 0.000000
vn 0.000000 -1.000000 0.000000
vn 0.000000 -1.000000 0.000000
vn -1.000000 -0.000000 0.000000
vn -1.000000 -0.000000 0.000000
vn -1.000000 -0.000000 0.000000
vn -1.000000 -0.000000 0.000000
vn 0.000000 0.000000 1.000000
vn 0.000000 0.000000 1.000000
vn 0.000000 0.000000 1.000000
vn 0.000000 0.000000 1.000000
vn 0.000000 1.000000 0.000000
vn 0.000000 1.000000 0.000000
vn 0.000000 1.000000 0.000000
vn 0.000000 1.000000 0.000000
vn 0.000000 0.000000 -1.000000
vn 0.000000 0.000000 -1.000000
vn 0.000000 0.000000 -1.000000
vn 0.000000 0.000000 -1.000000
vn 0.000000 0.000000 1.000000
vn 0.000000 0.000000 1.000000
vn 0.000000 0.000000 1.000000
vn 0.000000 0.000000 1.000000
vn 0.000000 1.000000 0.000000
vn 0.000000 1.000000 0.000000
vn 0.000000 1.000000 0.000000
vn 0.000000 1.000000 0.000000
vn 0.000000 0.000000 -1.000000
vn 0.000000 0.000000 -1.000000
vn 0.000000 0.000000 -1.000000
vn 0.000000 0.000000 -1.000000
vn 0.000000 -1.000000 0.000000
vn 0.000000 -1.000000 0.000000
vn 0.000000 -1.000000 0.000000
vn 0.000000 -1.000000 0.000000
vn 1.000000 0.000000 0.000000
vn 1.000000 0.000000 0.000000
vn 1.000000 0.000000 0.000000
vn 1.000000 0.000000 0.000000
vn 1.000000 0.000000 0.000000
vn 1.000000 0.000000 0.000000
vn 1.000000 0.000000 0.000000
vn 1.000000 0.000000 0.000000
s off
f 1/37/1 2/38/2 4/39/3 3/40/4
f 3/17/5 4/18/6 6/19/7 5/20/8
f 5/47/9 6/48/10 8/49/11 7/50/12
f 7/25/13 8/26/14 2/27/15 1/28/16
f 7/1/17 1/2/18 3/3/19 5/4/20
f 12/41/21 2/38/22 9/43/23 19/44/24
f 10/53/25 8/49/26 18/51/27 20/54/28
f 9/29/29 10/30/30 20/31/31 19/32/32
f 10/5/33 9/6/34 2/7/35 8/8/36
f 4/39/37 2/38/38 12/41/39 14/42/40
f 6/19/41 4/18/42 14/21/43 16/22/44
f 18/51/45 8/49/46 6/48/47 16/52/48
f 11/45/49 13/46/50 14/42/51 12/41/52
f 13/23/53 15/24/54 16/22/55 14/21/56
f 15/55/57 17/56/58 18/51/59 16/52/60
f 17/33/61 11/34/62 12/35/63 18/36/64
f 17/9/65 15/10/66 13/11/67 11/12/68
f 20/13/69 18/14/70 12/15/71 19/16/72
