# Blender 4.4.1
# www.blender.org
mtllib negro.mtl
o L
v 4.242804 2.121401 2.121402
v 0.000001 2.121402 2.121402
v 0.000001 2.121402 -2.121401
v 4.242804 2.121402 -2.121401
v 4.242805 6.364204 2.121403
v 0.000002 6.364205 2.121403
v 0.000002 6.364205 -2.121402
v 4.242805 6.364204 -2.121401
v -4.242804 2.121402 2.121402
v -4.242804 6.364205 2.121403
v -4.242804 2.121403 -2.121401
v -4.242804 6.364205 -2.121401
v 4.242805 -6.364205 2.121402
v 0.000000 -6.364205 2.121402
v 0.000000 -6.364205 -2.121402
v 4.242805 -6.364205 -2.121402
vn -0.0000 -0.0000 1.0000
vn -0.0000 -0.0000 -1.0000
vn 1.0000 -0.0000 -0.0000
vn -0.0000 1.0000 -0.0000
vn -1.0000 -0.0000 -0.0000
vn -0.0000 -1.0000 -0.0000
vt 0.013738 0.132113
vt 0.013738 0.015425
vt 0.130425 0.015425
vt 0.130425 0.132113
vt 0.387687 0.132129
vt 0.387670 0.015442
vt 0.504358 0.015425
vt 0.504374 0.132112
vt 0.512651 0.132112
vt 0.512651 0.015425
vt 0.629338 0.015425
vt 0.629338 0.132112
vt 0.264068 0.139091
vt 0.380755 0.139082
vt 0.380763 0.255769
vt 0.264076 0.255778
vt 0.247112 0.015425
vt 0.247112 0.132113
vt 0.502255 0.499978
vt 0.502255 0.383291
vt 0.618942 0.383291
vt 0.618942 0.499978
vt 0.271000 0.132146
vt 0.270983 0.015459
vt 0.380772 0.372457
vt 0.264085 0.372465
vt 0.130425 0.365487
vt 0.013738 0.365487
vt 0.380763 0.139083
vt 0.380763 0.372457
vt 0.264076 0.372457
vt 0.264076 0.139082
vt 0.504408 0.365487
vt 0.387721 0.365504
vt 0.629338 0.365487
vt 0.512651 0.365487
s 1
f 1/1/1 5/2/1 6/3/1 2/4/1
f 3/5/2 7/6/2 8/7/2 4/8/2
f 4/9/3 8/10/3 5/11/3 1/12/3
f 5/13/4 8/14/4 7/15/4 6/16/4
f 2/4/1 6/3/1 10/17/1 9/18/1
f 9/19/5 10/20/5 12/21/5 11/22/5
f 11/23/2 12/24/2 7/6/2 3/5/2
f 6/16/4 7/15/4 12/25/4 10/26/4
f 3/22/6 2/19/6 9/20/6 11/21/6
f 2/4/1 14/27/1 13/28/1 1/1/1
f 3/29/5 15/30/5 14/31/5 2/32/5
f 4/8/2 16/33/2 15/34/2 3/5/2
f 1/12/3 13/35/3 16/36/3 4/9/3
f 16/22/6 13/19/6 14/20/6 15/21/6
